# xmcd
#
# Track frame offsets: 
#        150
#        18737
#        35319
#        55417
#        76763
#        99809
#        117577
#        135662
#        149948
#        167150
#        184356
#        199283
#        215333
#        236228
#        256460
#
# Disc length: 3627 seconds
#
# Revision: 11
# Processed by: cddbd v1.5.2PL0 Copyright (c) Steve Scherf et al.
# Submitted via: ExactAudioCopy v0.99pb5
#
DISCID=e40e290f
DTITLE=Various Artist - Kneipen Hits - Ballads - CD 1
DYEAR=1998
DGENRE=Pop
TTITLE0=Gerry Rafferty - Baker street
TTITLE1=Kim Carnes - Bette Davis eyes
TTITLE2=Huey Lewis And The News - Stuck with you
TTITLE3=Midge Ure - If I was
TTITLE4=T'Pau - China in your hand
TTITLE5=Kim Wilde - Cambodia
TTITLE6=John Waite - Missing you
TTITLE7=Moody Blues - Go now!
TTITLE8=Lulu - The man who sold the world (feat. David Bowie)
TTITLE9=Kirsty MacColl - A new England
TTITLE10=George McCrae - Rock your baby
TTITLE11=Marillion - Kayleigh
TTITLE12=Cutting Crew - (I just) died in your arms
TTITLE13=Climie Fisher - Love changes (everything)
TTITLE14=Stranglers - Golden brown
EXTD=YEAR: 1998
EXTT0=
EXTT1=
EXTT2=
EXTT3=
EXTT4=
EXTT5=
EXTT6=
EXTT7=
EXTT8=
EXTT9=
EXTT10=
EXTT11=
EXTT12=
EXTT13=
EXTT14=
PLAYORDER=
